<svg width="19" height="19" viewBox="0 0 19 19" fill="none" xmlns="http://www.w3.org/2000/svg">
<path d="M18.4062 17.8123C18.4062 18.14 18.1402 18.406 17.8125 18.406H1.1875C0.85975 18.406 0.59375 18.14 0.59375 17.8123V16.9807L4.92902 12.6455C5.16088 12.4136 5.53672 12.4136 5.76858 12.6455C5.76858 12.6455 7.60831 14.4855 7.89123 14.7681C8.17416 15.051 8.44936 15.0501 8.73109 14.7681C9.01283 14.4861 13.8287 9.67048 13.8287 9.67048C14.0606 9.43862 14.4364 9.43862 14.6683 9.67048L18.4062 13.4087V17.8123Z" fill="#B4CCB9"/>
<path d="M17.8125 0H1.1875C0.531109 0 0 0.531109 0 1.1875V17.8125C0 18.4689 0.531109 19 1.1875 19H17.8125C18.4689 19 19 18.4689 19 17.8125V1.1875C19 0.531109 18.4689 0 17.8125 0ZM18.4062 17.8125C18.4062 18.1402 18.1402 18.4062 17.8125 18.4062H1.1875C0.85975 18.4062 0.59375 18.1402 0.59375 17.8125V16.981L4.92902 12.6457C5.16088 12.4138 5.53672 12.4138 5.76858 12.6457C5.76858 12.6457 7.60831 14.4857 7.89123 14.7683C8.17416 15.0513 8.44936 15.0504 8.73109 14.7683C9.01283 14.4863 13.8287 9.6707 13.8287 9.6707C14.0606 9.43884 14.4364 9.43884 14.6683 9.6707L18.4062 13.409V17.8125ZM18.4062 12.5691L15.0881 9.25092C14.6241 8.78691 13.873 8.78691 13.409 9.25092L8.31131 14.3486L6.18836 12.2259C5.72434 11.7619 4.97325 11.7619 4.50923 12.2259L0.59375 16.1411V1.1875C0.59375 0.85975 0.85975 0.59375 1.1875 0.59375H17.8125C18.1402 0.59375 18.4062 0.85975 18.4062 1.1875V12.5691Z" fill="#394240"/>
<path d="M8.60908 5.04707H7.71905C7.71192 5.04707 7.70598 5.05063 7.69886 5.05122C7.64513 4.61511 7.47323 4.21641 7.21614 3.88629C7.22148 3.88154 7.22831 3.88005 7.23366 3.87471L7.86333 3.24504C7.9797 3.12896 7.97941 2.94133 7.86333 2.82525C7.74695 2.70918 7.55962 2.70918 7.44295 2.82525L6.81358 3.45463C6.80823 3.45997 6.80675 3.4665 6.802 3.47214C6.47217 3.21475 6.07347 3.04286 5.63706 2.98913C5.63766 2.9826 5.64122 2.97607 5.64122 2.96924L5.64152 2.07861C5.64152 1.91444 5.50822 1.78174 5.34464 1.78174C5.17988 1.78174 5.04717 1.91414 5.04688 2.07891V2.96894C5.04688 2.97577 5.05044 2.9823 5.05103 2.98883C4.61462 3.04257 4.21592 3.21446 3.8858 3.47155C3.88105 3.46621 3.87956 3.45938 3.87452 3.45433L3.24484 2.82496C3.12877 2.70858 2.94114 2.70888 2.82506 2.82496C2.70898 2.94133 2.70869 3.12866 2.82506 3.24504L3.45473 3.87471C3.45978 3.87975 3.46661 3.88124 3.47195 3.88599C3.21456 4.21582 3.04267 4.61511 2.98894 5.05122C2.98181 5.05063 2.97558 5.04707 2.96875 5.04707H2.07812C1.91395 5.04707 1.78125 5.17977 1.78125 5.34394C1.78125 5.50811 1.91395 5.64082 2.07812 5.64082H2.96875C2.97558 5.64082 2.98181 5.63725 2.98864 5.63666C3.04238 6.07307 3.21427 6.47177 3.47166 6.80189C3.46602 6.80664 3.45948 6.80813 3.45414 6.81347L2.82447 7.44285C2.70809 7.55922 2.70809 7.74714 2.82447 7.86263C2.94084 7.9793 3.12788 7.97871 3.24484 7.86322L3.87422 7.23355C3.87956 7.22821 3.88105 7.22138 3.8858 7.21604C4.21562 7.47313 4.61433 7.64502 5.05073 7.69875C5.05044 7.70618 5.04688 7.71211 5.04688 7.71954L5.04658 8.60957C5.04658 8.77404 5.17958 8.90704 5.34345 8.90644C5.50792 8.90644 5.64033 8.77374 5.64122 8.60957L5.64092 7.71954C5.64092 7.71211 5.63736 7.70618 5.63677 7.69905C6.07288 7.64532 6.47158 7.47343 6.8017 7.21604C6.80645 7.22168 6.80794 7.2285 6.81328 7.23385L7.44266 7.86352C7.55903 7.98019 7.74695 7.9796 7.86244 7.86352C7.97881 7.74714 7.97852 7.55982 7.86273 7.44314L7.23336 6.81377C7.22802 6.80843 7.22119 6.80694 7.21555 6.80219C7.47294 6.47236 7.64483 6.07336 7.69856 5.63725C7.70569 5.63785 7.71163 5.64141 7.71875 5.64141H8.60938C8.77384 5.64141 8.90655 5.50841 8.90625 5.34454C8.90625 5.18007 8.77355 5.04766 8.60908 5.04707ZM5.34375 7.12519C4.3602 7.12519 3.5625 6.32749 3.5625 5.34394C3.5625 4.36039 4.3602 3.56269 5.34375 3.56269C6.3273 3.56269 7.125 4.36039 7.125 5.34394C7.125 6.32749 6.3273 7.12519 5.34375 7.12519Z" fill="#394240"/>
<path d="M17.8125 0.59375H1.1875C0.85975 0.59375 0.59375 0.85975 0.59375 1.1875V16.1411L4.50894 12.2259C4.97295 11.7619 5.72405 11.7619 6.18806 12.2259L8.31102 14.3486L13.4087 9.25092C13.8727 8.78691 14.6238 8.78691 15.0878 9.25092L18.4062 12.5691V1.1875C18.4062 0.85975 18.1402 0.59375 17.8125 0.59375ZM8.60938 5.64122L7.71905 5.64092C7.71192 5.64092 7.70598 5.63736 7.69886 5.63677C7.64513 6.07288 7.47323 6.47158 7.21584 6.8017C7.22148 6.80645 7.22831 6.80794 7.23366 6.81328L7.86303 7.44266C7.97881 7.55933 7.97911 7.74666 7.86273 7.86303C7.74725 7.97911 7.55933 7.9797 7.44295 7.86303L6.81358 7.23336C6.80823 7.22802 6.80675 7.22119 6.802 7.21555C6.47217 7.47294 6.07317 7.64483 5.63706 7.69856C5.63766 7.70569 5.64122 7.71162 5.64122 7.71905V8.60938C5.64033 8.77355 5.50792 8.90625 5.34345 8.90625C5.17958 8.90684 5.04658 8.77384 5.04658 8.60938L5.04688 7.71934C5.04688 7.71192 5.05044 7.70598 5.05103 7.69886C4.61462 7.64513 4.21622 7.47323 3.88609 7.21614C3.88134 7.22148 3.87986 7.22831 3.87452 7.23366L3.24514 7.86333C3.12817 7.97881 2.94114 7.97941 2.82477 7.86273C2.70839 7.74725 2.70839 7.55933 2.82477 7.44295L3.45444 6.81358C3.45978 6.80823 3.46631 6.80675 3.47195 6.802C3.21456 6.47217 3.04267 6.07317 2.98894 5.63677C2.98181 5.63706 2.97558 5.64062 2.96875 5.64062H2.07812C1.91395 5.64062 1.78125 5.50792 1.78125 5.34375C1.78125 5.17958 1.91395 5.04688 2.07812 5.04688H2.96875C2.97558 5.04688 2.98181 5.05044 2.98864 5.05103C3.04238 4.61492 3.21427 4.21592 3.47166 3.8858C3.46631 3.88105 3.45948 3.87956 3.45444 3.87452L2.82506 3.24484C2.70869 3.12847 2.70898 2.94114 2.82506 2.82477C2.94114 2.70869 3.12877 2.70839 3.24484 2.82477L3.87452 3.45444C3.87986 3.45948 3.88105 3.46631 3.8858 3.47166C4.21562 3.21456 4.61462 3.04267 5.05103 2.98894C5.05044 2.98211 5.04688 2.97558 5.04688 2.96875V2.07872C5.04717 1.91395 5.17988 1.78155 5.34434 1.78125C5.50792 1.78125 5.64122 1.91395 5.64122 2.07812L5.64092 2.96875C5.64092 2.97558 5.63736 2.98211 5.63677 2.98864C6.07317 3.04238 6.47158 3.21427 6.8017 3.47166C6.80645 3.46602 6.80794 3.45948 6.81328 3.45414L7.44266 2.82477C7.55933 2.70869 7.74666 2.70869 7.86303 2.82477C7.97911 2.94084 7.97941 3.12847 7.86303 3.24455L7.23336 3.87422C7.22802 3.87956 7.22119 3.88105 7.21584 3.8858C7.47294 4.21562 7.64483 4.61462 7.69856 5.05073C7.70598 5.05044 7.71192 5.04688 7.71905 5.04688H8.60908C8.77355 5.04747 8.90625 5.17988 8.90625 5.34434C8.90655 5.50822 8.77384 5.64122 8.60938 5.64122Z" fill="#F9EBB2"/>
<path d="M5.34375 7.125C6.32751 7.125 7.125 6.32751 7.125 5.34375C7.125 4.35999 6.32751 3.5625 5.34375 3.5625C4.35999 3.5625 3.5625 4.35999 3.5625 5.34375C3.5625 6.32751 4.35999 7.125 5.34375 7.125Z" fill="#F76D57"/>
</svg>
