<svg width="56" height="32" viewBox="0 0 56 32" fill="none" xmlns="http://www.w3.org/2000/svg">
<path d="M44.353 20.0254C43.688 20.0254 43.2623 20.0254 42.8221 20.0254C42.9704 19.1254 43.1522 18.2619 43.2431 17.3892C43.9033 11.2669 40.3392 5.25822 34.4645 2.7493C33.4981 2.3357 33.2876 1.7221 33.1632 0.763078C33.9096 1.05851 34.5793 1.28122 35.206 1.5812C39.9183 3.83559 42.9513 7.39443 44.2382 12.2623C44.3865 12.8304 44.6783 13.044 45.2237 13.2395C47.7927 14.1531 50.3569 15.0848 52.8829 16.0893C53.6388 16.3893 54.3324 16.8938 54.9496 17.4165C56.5331 18.7436 56.3178 20.2981 54.3611 21.0117C53.0408 21.4935 51.6103 21.798 50.1991 21.9343C48.1324 22.1343 46.0466 22.1252 43.9703 22.1616C43.5302 22.1707 43.3532 22.3207 43.1809 22.6661C40.6646 27.5839 36.5742 30.6246 30.9243 31.7064C21.7486 33.4699 12.3672 27.0749 11.2095 18.2846C11.1138 17.5574 10.8603 17.1983 10.0757 16.9392C7.80329 16.1893 5.55481 15.353 3.34939 14.4303C2.43086 14.044 1.56974 13.4349 0.83301 12.7759C-0.473021 11.6123 -0.209901 10.2397 1.38795 9.47156C3.09106 8.65344 4.9616 8.47618 6.81779 8.36709C8.67876 8.25801 10.5445 8.24892 12.4103 8.24438C12.9317 8.24438 13.2044 8.08984 13.4819 7.67623C16.6824 2.92202 21.2415 0.344925 27.1785 0.00404012C27.3603 -0.00505015 27.5421 0.00404012 27.8195 0.00404012C27.3698 0.763078 27.078 1.32667 26.0064 1.4403C18.7347 2.19934 13.0753 7.83986 12.4629 14.7894C12.4486 14.9712 12.4198 15.1484 12.3816 15.4302C11.9319 15.303 11.5157 15.1893 11.0612 15.0621C11.1138 13.144 11.6592 11.3714 12.3816 9.56701C10.9703 9.56701 9.63078 9.48065 8.3104 9.58974C6.53075 9.73518 4.7511 9.97607 2.99538 10.2897C2.44043 10.3897 1.95725 10.8533 1.44058 11.1487C1.83765 11.6032 2.14861 12.1714 2.64136 12.4941C4.7511 13.8713 7.1431 14.6803 9.55423 15.4257C15.7686 17.3528 22.1505 18.6118 28.6089 19.53C34.2444 20.3299 39.8991 20.9299 45.6016 20.8435C47.9554 20.8071 50.3043 20.4617 52.6485 20.2026C53.1747 20.1435 53.6866 19.8754 54.1746 19.6436C54.6386 19.4209 54.6817 19.0618 54.3276 18.6982C54.0837 18.4528 53.8301 18.1982 53.5383 18.0119C50.8545 16.2802 47.7927 15.3984 44.8266 14.4894C44.6688 16.3484 44.5109 18.1664 44.353 20.0254ZM12.5538 17.7528C13.1566 24.2251 19.1461 29.8474 26.0303 30.5701C34.2205 31.4291 40.1383 26.2658 41.7936 22.1798C38.4783 21.9025 35.1677 21.6253 31.8285 21.348C31.8189 21.4616 31.7855 21.5571 31.8046 21.6344C32.2591 23.4842 31.4936 24.7796 29.9532 25.9204C28.4032 27.0703 27.0397 28.4521 25.5471 29.7747C24.1646 27.3794 22.8155 25.0568 21.4903 22.7252C21.409 22.5843 21.4616 22.3343 21.5286 22.157C21.7965 21.4116 22.0979 20.6799 22.3945 19.9117C19.0935 19.1891 15.85 18.4755 12.5538 17.7528Z" fill="#149FF3"/>
<path d="M23.2363 17.8667C23.9635 16.0259 24.6476 14.2896 25.3413 12.5534C26.1163 10.599 26.9296 8.65821 27.6615 6.69471C27.8337 6.23566 27.7524 5.69478 27.7763 5.18573C27.7811 5.05392 27.7476 4.90848 27.6902 4.78576C26.9152 3.19041 27.2692 1.78597 28.427 0.476967C28.6805 0.190623 28.8767 -0.0229981 29.2929 0.0497241C30.1157 0.190623 30.9481 0.272436 31.7566 0.458786C32.0054 0.517873 32.1872 0.845123 32.3977 1.04965C32.412 1.06329 32.4072 1.09511 32.412 1.11329C33.1201 2.6859 32.9287 4.11308 31.7088 5.42208C31.1873 5.98113 31.0438 6.64926 31.0917 7.43557C31.3069 11.0853 31.4457 14.7396 31.6083 18.3939C31.6179 18.5939 31.6083 18.7939 31.6083 19.1393C28.7905 18.7121 26.0541 18.2939 23.2363 17.8667Z" fill="#149FF3"/>
<path d="M12.5537 17.7528C15.8499 18.4755 19.0934 19.1891 22.3944 19.9163C22.0978 20.6799 21.8012 21.4162 21.5285 22.1616C21.4663 22.3389 21.4089 22.5843 21.4902 22.7297C22.8154 25.0614 24.1645 27.384 25.547 29.7792C27.0444 28.4521 28.4031 27.0749 29.9531 25.925C31.4935 24.7796 32.259 23.4888 31.8045 21.6389C31.7854 21.5571 31.8189 21.4662 31.8284 21.3526C35.1677 21.6298 38.4782 21.9071 41.7935 22.1843C40.1382 26.2749 34.2156 31.4337 26.0302 30.5746C19.1461 29.8474 13.1565 24.2251 12.5537 17.7528Z" fill="white"/>
</svg>
